<svg width="2671" height="1080" viewBox="0 0 2671 1080" fill="none" xmlns="http://www.w3.org/2000/svg">
<circle cx="108.419" cy="108" r="108" fill="black"/>
<circle cx="972.419" cy="108" r="108" fill="black"/>
<circle cx="108.419" cy="972" r="108" fill="black"/>
<circle cx="972.419" cy="972" r="108" fill="black"/>
<circle cx="108.419" cy="324" r="108" fill="black"/>
<circle cx="972.419" cy="324" r="108" fill="black"/>
<circle cx="108.419" cy="756" r="108" fill="black"/>
<circle cx="972.419" cy="756" r="108" fill="black"/>
<circle cx="324.419" cy="540" r="108" fill="black"/>
<circle cx="756.419" cy="540" r="108" fill="black"/>
<circle cx="324.419" cy="540" r="108" fill="black"/>
<circle cx="756.419" cy="540" r="108" fill="black"/>
<circle cx="540.419" cy="324" r="108" fill="black"/>
<circle cx="540.419" cy="324" r="108" fill="black"/>
<circle cx="540.419" cy="756" r="108" fill="black"/>
<circle cx="540.419" cy="756" r="108" fill="black"/>
<path d="M1296.42 1077.79V884.826H1373.04C1408.05 884.826 1434.23 902.221 1434.23 934.446C1434.18 942.224 1432.06 949.848 1428.09 956.534C1424.12 963.22 1418.44 968.727 1411.63 972.489C1429.27 979.38 1444.15 994.818 1444.15 1020.18C1444.15 1056.84 1416.04 1077.79 1375.25 1077.79H1296.42ZM1337.21 958.43H1370.01C1387.65 958.43 1395.92 950.987 1395.92 938.03C1395.92 925.074 1387.65 917.631 1369.18 917.631H1337.21V958.43ZM1337.21 1041.96H1371.67C1394.54 1041.96 1404.74 1033.69 1404.74 1017.97C1404.74 1002.26 1394.54 993.439 1371.67 993.439H1337.21V1041.96Z" fill="black"/>
<path d="M1463.17 1077.79V884.826H1504.79V1077.79H1463.17Z" fill="black"/>
<path d="M1524.36 981.311C1524.36 924.523 1566.26 882.594 1623.04 882.594C1679.82 882.594 1721.44 924.523 1721.44 981.311C1721.44 1038.1 1679.54 1080 1623.04 1080C1566.53 1080 1524.36 1038.1 1524.36 981.311ZM1679.82 981.311C1679.82 945.198 1655.84 918.183 1622.76 918.183C1589.69 918.183 1565.98 945.198 1565.98 981.311C1565.98 1017.42 1589.69 1044.16 1622.76 1044.16C1655.84 1044.16 1679.82 1017.4 1679.82 981.311Z" fill="black"/>
<path d="M1740.73 1077.79V884.826H1805.5C1858.7 884.826 1905.28 915.453 1905.28 981.31C1905.28 1047.17 1858.7 1077.79 1805.5 1077.79H1740.73ZM1782.07 1041.96H1801.37C1833.06 1041.96 1863.38 1026.8 1863.38 981.31C1863.38 935.825 1833.06 920.387 1801.37 920.387H1782.07V1041.96Z" fill="black"/>
<path d="M1924.85 1077.79V884.826H2056.05V920.387H1966.19V961.186H2037.86V997.023H1966.19V1041.96H2059.08V1077.79H1924.85Z" fill="black"/>
<path d="M2072.86 1012.19H2112.55C2114.2 1031.76 2127.16 1044.16 2147.56 1044.16C2166.02 1044.16 2178.43 1036.44 2178.43 1021.83C2178.43 984.067 2078.37 1013.01 2078.37 937.204C2078.37 905.226 2105.94 882.594 2145.07 882.594C2186.69 882.594 2214.81 906.604 2215.91 943.241H2176.5C2175.12 928.079 2163.54 918.155 2145.07 918.155C2128.81 918.155 2118.61 925.874 2118.61 937.176C2118.61 977.424 2220.05 944.895 2220.05 1021.25C2220.05 1057.37 2190.83 1079.97 2147.56 1079.97C2103.73 1080 2074.51 1053.23 2072.86 1012.19Z" fill="black"/>
<path d="M2239.89 1077.79V884.826H2281.51V1077.79H2239.89Z" fill="black"/>
<path d="M2301.08 981.311C2301.08 915.426 2347.94 882.594 2398.93 882.594C2447.44 882.594 2482.17 911.015 2484.65 952.365H2443.58C2440.55 931.69 2423.46 918.183 2398.65 918.183C2365.85 918.183 2340.49 941.339 2340.49 981.311C2340.49 1021.28 2365.85 1046.37 2397.82 1046.37C2421.8 1046.37 2445.51 1029 2445.51 1011.08C2445.58 1010.05 2445.43 1009.01 2445.07 1008.04C2444.71 1007.07 2444.14 1006.19 2443.41 1005.46C2442.68 1004.73 2441.8 1004.16 2440.83 1003.8C2439.86 1003.44 2438.82 1003.29 2437.79 1003.36H2400.58V972.214H2452.95C2457.05 972.184 2461.11 972.97 2464.9 974.525C2468.7 976.08 2472.14 978.373 2475.04 981.272C2477.94 984.17 2480.23 987.616 2481.78 991.409C2483.34 995.201 2484.12 999.265 2484.1 1003.36V1077.79H2447.44V1048.3C2441.1 1067.32 2420.7 1080 2395.89 1080C2346.56 1080 2301.08 1047.2 2301.08 981.311Z" fill="black"/>
<path d="M2507.52 1077.79V884.826H2551.62L2629.07 1012.49V884.799H2670.42V1077.77H2626.32L2548.87 950.132V1077.77L2507.52 1077.79Z" fill="black"/>
<path d="M1659.42 840.968L1644.26 798.791H1574.53L1559.37 840.968H1516.37L1589.69 648H1629.1L1702.42 840.968H1659.42ZM1586.93 764.056H1631.86L1609.53 701.48L1586.93 764.056Z" fill="black"/>
<path d="M1463.17 840.968V648H1504.79V840.968H1463.17Z" fill="black"/>
<path d="M1296.42 840.968V648H1338.04V840.968H1296.42Z" fill="black"/>
<path d="M1344.46 648L1400.69 782.802L1457.19 648H1496.11L1416.18 840.968H1385.53L1305.1 648H1344.46Z" fill="black"/>
</svg>
